<svg width="48" height="48" viewBox="0 0 48 48" fill="none" xmlns="http://www.w3.org/2000/svg">
<path d="M9 10.0435V29.3478L24 39L39 29.3478V10.0435" stroke="#636262" stroke-width="1.8" stroke-linejoin="round"/>
<path d="M33.7 28C33.7 25.349 35.849 23.2 38.5 23.2C41.151 23.2 43.3 25.349 43.3 28C43.3 30.651 41.151 32.8 38.5 32.8C35.849 32.8 33.7 30.651 33.7 28ZM37.6 29.5V28H39.4V29.5H37.6Z" fill="#636262"/>
<path d="M4.2 28C4.2 25.349 6.34903 23.2 9 23.2C11.651 23.2 13.8 25.349 13.8 28C13.8 30.651 11.651 32.8 9 32.8C6.34903 32.8 4.2 30.651 4.2 28ZM8.1 29.5V28H9.9V29.5H8.1Z" fill="#636262"/>
<path d="M9 8V17.0244V28L16.6271 22.6341L24.2542 17.0244L31.6271 22.5122L39 28V8" stroke="#636262" stroke-width="1.8" stroke-linejoin="bevel"/>
<path d="M9 9L24.2542 15.5M24.2542 15.5L39 9M24.2542 15.5V39" stroke="white" stroke-width="1.8"/>
</svg>
